<?xml version="1.0" encoding="iso-8859-1"?>
<!-- Generator: Adobe Illustrator 18.0.0, SVG Export Plug-In . SVG Version: 6.00 Build 0)  -->
<!DOCTYPE svg PUBLIC "-//W3C//DTD SVG 1.1//EN" "http://www.w3.org/Graphics/SVG/1.1/DTD/svg11.dtd">
<svg version="1.1" id="Capa_1" xmlns="http://www.w3.org/2000/svg" xmlns:xlink="http://www.w3.org/1999/xlink" x="0px" y="0px"
	 viewBox="0 0 83.441 83.441" style="enable-background:new 0 0 83.441 83.441;" xml:space="preserve">
<g id="XMLID_540_">
	<g id="XMLID_374_">
		<path id="XMLID_243_" style="fill:#6D6453;" d="M63.551,77.08h-8.613c-0.872,0-1.579-0.707-1.579-1.579V48.464H65.13v27.038
			C65.13,76.373,64.423,77.08,63.551,77.08z"/>
		<polygon id="XMLID_242_" style="fill:#9EA647;" points="68.637,43.032 78.845,45.445 65.107,25.582 73.744,27.623 59.038,6.361 
			44.484,27.727 53.106,25.624 39.51,45.585 49.7,43.099 35.048,64.608 59.224,69.633 83.441,64.436 		"/>
		<path id="XMLID_241_" style="opacity:0.41;fill:#302F2A;" d="M68.637,43.032l10.208,2.413L65.107,25.582l8.637,2.042l-14.5-20.964
			v68.842c0,0.872,0.707,1.579,1.579,1.579h2.728c0.872,0,1.579-0.707,1.579-1.579v-7.193l18.311-3.872L68.637,43.032z"/>
	</g>
	<g id="XMLID_437_">
		<path id="XMLID_440_" style="fill:#6D6453;" d="M41.75,77.08h-7.2c-0.872,0-1.579-0.707-1.579-1.579V51.899h10.357v23.603
			C43.328,76.373,42.622,77.08,41.75,77.08z"/>
		<polygon id="XMLID_439_" style="fill:#9EA647;" points="46.415,47.119 55.397,49.243 43.308,31.764 50.908,33.561 37.968,14.85 
			25.161,33.652 32.748,31.802 20.784,49.366 29.75,47.178 16.858,66.105 38.131,70.476 59.441,65.954 		"/>
		<path id="XMLID_438_" style="opacity:0.41;fill:#302F2A;" d="M46.415,47.119l8.982,2.124L43.308,31.764l7.6,1.797L38.149,15.113
			v60.388c0,0.872,0.707,1.579,1.579,1.579h2.022c0.872,0,1.579-0.707,1.579-1.579v-6.109l16.113-3.438L46.415,47.119z"/>
	</g>
	<g id="XMLID_441_">
		<path id="XMLID_444_" style="fill:#6D6453;" d="M21.074,77.08h-5.707c-0.872,0-1.579-0.707-1.579-1.579V55.531h8.864v19.971
			C22.652,76.373,21.946,77.08,21.074,77.08z"/>
		<polygon id="XMLID_443_" style="fill:#9EA647;" points="25.293,51.441 32.98,53.258 22.635,38.3 29.139,39.838 18.065,23.826 
			7.105,39.916 13.598,38.332 3.359,53.363 11.033,51.491 0,67.688 18.205,70.958 36.441,67.559 		"/>
		<path id="XMLID_442_" style="opacity:0.41;fill:#302F2A;" d="M25.293,51.441l7.687,1.817L22.635,38.3l6.504,1.538L18.221,24.051
			v51.45c0,0.872,0.706,1.579,1.579,1.579h1.274c0.872,0,1.579-0.707,1.579-1.579v-5.025l13.789-2.918L25.293,51.441z"/>
	</g>
</g>
<g>
</g>
<g>
</g>
<g>
</g>
<g>
</g>
<g>
</g>
<g>
</g>
<g>
</g>
<g>
</g>
<g>
</g>
<g>
</g>
<g>
</g>
<g>
</g>
<g>
</g>
<g>
</g>
<g>
</g>
</svg>
